<?xml version="1.0" encoding="UTF-8" standalone="no"?>
<svg xmlns:rdf="http://www.w3.org/1999/02/22-rdf-syntax-ns#" xmlns="http://www.w3.org/2000/svg" enable-background="new 0 0 265.333 209.222" xml:space="preserve" height="209.22px" viewBox="0 0 265.333 209.222" width="265.33px" version="1.1" y="0px" x="0px" xmlns:cc="http://creativecommons.org/ns#" xmlns:dc="http://purl.org/dc/elements/1.1/"><metadata><rdf:RDF><cc:Work rdf:about=""><dc:format>image/svg+xml</dc:format><dc:type rdf:resource="http://purl.org/dc/dcmitype/StillImage"/><dc:title/></cc:Work></rdf:RDF></metadata><g display="none"><g display="inline"><rect fill-rule="evenodd" height="224" width="395" clip-rule="evenodd" x="-64.807" fill="#0D68A6"/></g></g><rect fill-rule="evenodd" height="8.206" width="207.94" clip-rule="evenodd" y="103.6" x="25.638" fill="#D1D1D1"/><rect fill-rule="evenodd" height="8.207" width="205.2" clip-rule="evenodd" y="158.97" x="31.791" fill="#CDCDCD"/><rect fill-rule="evenodd" height="8.206" width="221.8" clip-rule="evenodd" y="55.156" x="22.416" fill="#D5D5D5"/><path fill="#E75951" clip-rule="evenodd" d="m226.76 89.635h-47.581c-9.556 0-17.303 7.746-17.303 17.303 0 9.556 7.747 17.302 17.303 17.302h47.581c9.557 0 17.303-7.746 17.303-17.302 0-9.559-7.75-17.305-17.3-17.305z" fill-rule="evenodd"/><path fill="#7CC094" clip-rule="evenodd" d="m86.606 89.635h-47.582c-9.556 0-17.303 7.746-17.303 17.303 0 9.556 7.747 17.302 17.303 17.302h47.582c9.556 0 17.302-7.746 17.302-17.302 0-9.559-7.748-17.305-17.304-17.305z" fill-rule="evenodd"/><circle fill-rule="evenodd" cy="106.94" cx="130.73" clip-rule="evenodd" r="17.302" fill="#80CBE3"/><path fill="#A5A5A5" clip-rule="evenodd" d="m188.69 145h-109c-9.557 0-17.303 7.746-17.303 17.302 0 9.557 7.746 17.303 17.303 17.303h109c9.555 0 17.303-7.746 17.303-17.303 0-9.55-7.74-17.3-17.3-17.3z" fill-rule="evenodd"/><path fill="#B5EAC9" clip-rule="evenodd" d="m117.75 41.188h-64.884c-9.556 0-17.302 7.746-17.302 17.302s7.747 17.303 17.302 17.303h64.884c9.556 0 17.302-7.747 17.302-17.303s-7.74-17.302-17.3-17.302z" fill-rule="evenodd"/><circle fill-rule="evenodd" cy="58.491" cx="158.41" clip-rule="evenodd" r="17.302" fill="#80CBE3"/><circle fill-rule="evenodd" cy="58.491" cx="203.4" clip-rule="evenodd" r="17.302" fill="#80CBE3"/><path d="m195.67 24.055v69.167h-109.31v-69.167h109.31m0-4h-109.31c-2.209 0-4 1.791-4 4v69.167c0 2.209 1.791 4 4 4h109.31c2.209 0 4-1.791 4-4v-69.167c0-2.209-1.79-4-4-4z" fill="#fff"/></svg>
