<svg version="1.1" viewBox="0.000000 0.000000 96.000000 96.000000" xmlns="http://www.w3.org/2000/svg" xmlns:xlink="http://www.w3.org/1999/xlink" id="Icons_Server" overflow="hidden"><rect x="45.000000" y="67.000000" width="6.000000" height="8.000000"/><rect x="45.000000" y="79.000000" width="6.000000" height="6.000000"/><rect x="55.000000" y="79.000000" width="29.000000" height="6.000000"/><rect x="12.000000" y="79.000000" width="29.000000" height="6.000000"/><path d=" M 76.419998 51.000000 L 19.580000 51.000000 C 17.602800 51.000000 16.000000 52.602798 16.000000 54.580002 L 16.000000 63.419998 C 16.000000 65.397202 17.602800 67.000000 19.580000 67.000000 L 76.419998 67.000000 C 78.397202 67.000000 80.000000 65.397202 80.000000 63.419998 L 80.000000 54.580002 C 80.000000 52.602798 78.397202 51.000000 76.419998 51.000000 Z M 26.000000 61.000000 C 24.895399 61.000000 24.000000 60.104599 24.000000 59.000000 C 24.000000 57.895401 24.895399 57.000000 26.000000 57.000000 C 27.104601 57.000000 28.000000 57.895401 28.000000 59.000000 C 28.000000 60.104599 27.104601 61.000000 26.000000 61.000000 Z M 36.000000 61.000000 C 34.895401 61.000000 34.000000 60.104599 34.000000 59.000000 C 34.000000 57.895401 34.895401 57.000000 36.000000 57.000000 C 37.104599 57.000000 38.000000 57.895401 38.000000 59.000000 C 38.000000 60.104599 37.104599 61.000000 36.000000 61.000000 Z M 46.000000 61.000000 C 44.895401 61.000000 44.000000 60.104599 44.000000 59.000000 C 44.000000 57.895401 44.895401 57.000000 46.000000 57.000000 C 47.104599 57.000000 48.000000 57.895401 48.000000 59.000000 C 48.000000 60.104599 47.104599 61.000000 46.000000 61.000000 Z"/><path d=" M 76.419998 31.000000 L 19.580000 31.000000 C 17.602800 31.000000 16.000000 32.602798 16.000000 34.580002 L 16.000000 43.419998 C 16.000000 45.397202 17.602800 47.000000 19.580000 47.000000 L 76.419998 47.000000 C 78.397202 47.000000 80.000000 45.397202 80.000000 43.419998 L 80.000000 34.580002 C 80.000000 32.602798 78.397202 31.000000 76.419998 31.000000 Z M 26.000000 41.000000 C 24.895399 41.000000 24.000000 40.104599 24.000000 39.000000 C 24.000000 37.895401 24.895399 37.000000 26.000000 37.000000 C 27.104601 37.000000 28.000000 37.895401 28.000000 39.000000 C 28.000000 40.104599 27.104601 41.000000 26.000000 41.000000 Z M 36.000000 41.000000 C 34.895401 41.000000 34.000000 40.104599 34.000000 39.000000 C 34.000000 37.895401 34.895401 37.000000 36.000000 37.000000 C 37.104599 37.000000 38.000000 37.895401 38.000000 39.000000 C 38.000000 40.104599 37.104599 41.000000 36.000000 41.000000 Z M 46.000000 41.000000 C 44.895401 41.000000 44.000000 40.104599 44.000000 39.000000 C 44.000000 37.895401 44.895401 37.000000 46.000000 37.000000 C 47.104599 37.000000 48.000000 37.895401 48.000000 39.000000 C 48.000000 40.104599 47.104599 41.000000 46.000000 41.000000 Z"/><path d=" M 76.419998 11.000000 L 19.580000 11.000000 C 17.602800 11.000000 16.000000 12.602800 16.000000 14.580000 L 16.000000 23.420000 C 16.000000 25.397200 17.602800 27.000000 19.580000 27.000000 L 76.419998 27.000000 C 78.397202 27.000000 80.000000 25.397200 80.000000 23.420000 L 80.000000 14.580000 C 80.000000 12.602800 78.397202 11.000000 76.419998 11.000000 Z M 26.000000 21.000000 C 24.895399 21.000000 24.000000 20.104601 24.000000 19.000000 C 24.000000 17.895399 24.895399 17.000000 26.000000 17.000000 C 27.104601 17.000000 28.000000 17.895399 28.000000 19.000000 C 28.000000 20.104601 27.104601 21.000000 26.000000 21.000000 Z M 36.000000 21.000000 C 34.895401 21.000000 34.000000 20.104601 34.000000 19.000000 C 34.000000 17.895399 34.895401 17.000000 36.000000 17.000000 C 37.104599 17.000000 38.000000 17.895399 38.000000 19.000000 C 38.000000 20.104601 37.104599 21.000000 36.000000 21.000000 Z M 46.000000 21.000000 C 44.895401 21.000000 44.000000 20.104601 44.000000 19.000000 C 44.000000 17.895399 44.895401 17.000000 46.000000 17.000000 C 47.104599 17.000000 48.000000 17.895399 48.000000 19.000000 C 48.000000 20.104601 47.104599 21.000000 46.000000 21.000000 Z"/></svg>